<svg width="57" height="57" viewBox="0 0 57 57" fill="none" xmlns="http://www.w3.org/2000/svg">
<path d="M32 9.97326C32 6.85593 28.2294 5.29493 26.0267 7.49993L15.5267 17.9999H11.0187C8.35635 17.9999 5.61002 19.5493 4.81202 22.4449C4.27063 24.4176 3.99751 26.4543 4.00002 28.4999C4.00002 30.5953 4.28235 32.6253 4.81668 34.5549C5.61235 37.4483 8.35868 38.9999 11.021 38.9999H15.5244L26.0244 49.4999C28.2294 51.7049 32 50.1439 32 47.0266V9.97326ZM43.8627 12.4139C44.1908 12.0862 44.6356 11.9021 45.0994 11.9021C45.5631 11.9021 46.0079 12.0862 46.336 12.4139C55.2214 21.2969 55.2214 35.7006 46.336 44.5859C46.0043 44.895 45.5655 45.0633 45.1121 45.0553C44.6588 45.0473 44.2262 44.8637 43.9056 44.543C43.5849 44.2224 43.4013 43.7898 43.3933 43.3365C43.3853 42.8831 43.5536 42.4443 43.8627 42.1126C45.6505 40.325 47.0686 38.2028 48.0362 35.8671C49.0037 33.5315 49.5017 31.0281 49.5017 28.4999C49.5017 25.9718 49.0037 23.4684 48.0362 21.1327C47.0686 18.797 45.6505 16.6748 43.8627 14.8873C43.535 14.5591 43.3509 14.1143 43.3509 13.6506C43.3509 13.1868 43.535 12.7421 43.8627 12.4139Z" fill="white"/>
<path d="M37.6748 18.5996C37.8373 18.437 38.0303 18.308 38.2427 18.22C38.4551 18.132 38.6827 18.0867 38.9126 18.0867C39.1425 18.0867 39.3702 18.132 39.5826 18.22C39.795 18.308 39.988 18.437 40.1505 18.5996C41.4507 19.8997 42.4822 21.4431 43.1859 23.1418C43.8896 24.8406 44.2518 26.6613 44.2518 28.5C44.2518 30.3387 43.8896 32.1594 43.1859 33.8581C42.4822 35.5568 41.4507 37.1002 40.1505 38.4003C39.8203 38.7189 39.3781 38.8951 38.9193 38.8909C38.4604 38.8867 38.0216 38.7024 37.6973 38.3778C37.373 38.0532 37.1891 37.6142 37.1854 37.1554C37.1816 36.6965 37.3582 36.2545 37.6771 35.9246C38.6522 34.9496 39.4256 33.7921 39.9533 32.5182C40.481 31.2442 40.7526 29.8789 40.7526 28.5C40.7526 27.1211 40.481 25.7557 39.9533 24.4818C39.4256 23.2078 38.6522 22.0503 37.6771 21.0753C37.3494 20.7472 37.1653 20.3024 37.1653 19.8386C37.1653 19.3749 37.3471 18.9278 37.6748 18.5996Z" fill="white"/>
</svg>
