<svg width="83" height="87" viewBox="0 0 83 87" fill="none" xmlns="http://www.w3.org/2000/svg">
<path d="M28.6875 15.8125C28.6875 12.4144 30.0374 9.1555 32.4402 6.75269C34.843 4.34988 38.1019 3 41.5 3C44.8981 3 48.157 4.34988 50.5598 6.75269C52.9626 9.1555 54.3125 12.4144 54.3125 15.8125V44C54.3125 47.3981 52.9626 50.657 50.5598 53.0598C48.157 55.4626 44.8981 56.8125 41.5 56.8125C38.1019 56.8125 34.843 55.4626 32.4402 53.0598C30.0374 50.657 28.6875 47.3981 28.6875 44V15.8125Z" fill="white"/>
<path d="M21 39.8125C21.6796 39.8125 22.3314 40.0825 22.812 40.563C23.2925 41.0436 23.5625 41.6954 23.5625 42.375V47.5C23.5625 52.2573 25.4523 56.8198 28.8163 60.1837C32.1802 63.5477 36.7427 65.4375 41.5 65.4375C46.2573 65.4375 50.8198 63.5477 54.1837 60.1837C57.5477 56.8198 59.4375 52.2573 59.4375 47.5V42.375C59.4375 41.6954 59.7075 41.0436 60.188 40.563C60.6686 40.0825 61.3204 39.8125 62 39.8125C62.6796 39.8125 63.3314 40.0825 63.812 40.563C64.2925 41.0436 64.5625 41.6954 64.5625 42.375V47.5C64.5624 53.1731 62.4716 58.6472 58.6898 62.8759C54.908 67.1046 49.7004 69.7913 44.0625 70.4224V78.25H54.3125C54.9921 78.25 55.6439 78.52 56.1245 79.0005C56.605 79.4811 56.875 80.1329 56.875 80.8125C56.875 81.4921 56.605 82.1439 56.1245 82.6245C55.6439 83.105 54.9921 83.375 54.3125 83.375H28.6875C28.0079 83.375 27.3561 83.105 26.8755 82.6245C26.395 82.1439 26.125 81.4921 26.125 80.8125C26.125 80.1329 26.395 79.4811 26.8755 79.0005C27.3561 78.52 28.0079 78.25 28.6875 78.25H38.9375V70.4224C33.2996 69.7913 28.092 67.1046 24.3102 62.8759C20.5284 58.6472 18.4376 53.1731 18.4375 47.5V42.375C18.4375 41.6954 18.7075 41.0436 19.188 40.563C19.6686 40.0825 20.3204 39.8125 21 39.8125Z" fill="white"/>
</svg>
